<svg xmlns="http://www.w3.org/2000/svg" xmlns:xlink="http://www.w3.org/1999/xlink" width="176" height="32" viewBox="0 0 176 32">
  <defs>
    <clipPath id="clip-path">
      <rect id="Rectangle_1" data-name="Rectangle 1" width="132" height="24" transform="translate(0.432 0.079)"/>
    </clipPath>
    <clipPath id="clip-Custom_Size_1">
      <rect width="176" height="32"/>
    </clipPath>
  </defs>
  <g id="Custom_Size_1" data-name="Custom Size – 1" clip-path="url(#clip-Custom_Size_1)">
    <g id="Custom_Size_1-2" data-name="Custom Size – 1" transform="translate(41.568 3.921)" clip-path="url(#clip-path)">
      <g id="yummycake-logo" transform="translate(0.34 1.511)">
        <path id="Path_1" data-name="Path 1" d="M59.323,609.79V603.34L55,589.707h2.859l2.894,10.04,2.859-10.04h2.863l-4.289,13.634v6.451Zm16.457-.1a7.636,7.636,0,0,1-2.3.314,8.054,8.054,0,0,1-2.336-.314,4.78,4.78,0,0,1-1.639-.976,5.161,5.161,0,0,1-1.046-1.569,9.382,9.382,0,0,1-.558-2.057,16.7,16.7,0,0,1-.174-2.441V589.707h2.859v12.936c0,.593.035,1.116.035,1.534a10.8,10.8,0,0,0,.209,1.359,3.7,3.7,0,0,0,.488,1.116,2.2,2.2,0,0,0,.837.732,3,3,0,0,0,1.325.279,2.929,2.929,0,0,0,1.29-.279,2.616,2.616,0,0,0,.872-.732,3.7,3.7,0,0,0,.453-1.116,10.8,10.8,0,0,0,.209-1.359c.035-.418.035-.941.035-1.534V589.707H79.2v12.936a17.084,17.084,0,0,1-.14,2.441,9.414,9.414,0,0,1-.593,2.057,5.161,5.161,0,0,1-1.046,1.569,4.465,4.465,0,0,1-1.637.977Zm6.137.1V589.71h3.975l2.859,15.377,2.824-15.377h3.975V609.79H92.693v-15.83l-2.859,15.83H87.671l-2.859-15.83v15.83Zm16.527,0V589.71h3.94l2.859,15.377L108.1,589.71h3.975V609.79h-2.894v-15.83l-2.859,15.83h-2.162l-2.859-15.83v15.83Zm19.317,0V603.34l-4.289-13.634h2.859l2.894,10.04,2.859-10.04h2.859l-4.289,13.634v6.451Zm18.41.209a6.381,6.381,0,0,1-2.232-.349,4.076,4.076,0,0,1-1.569-1.011,4.5,4.5,0,0,1-1.011-1.569,9.067,9.067,0,0,1-.558-2.022,17.4,17.4,0,0,1-.14-2.441V596.89a17.4,17.4,0,0,1,.14-2.441,9.625,9.625,0,0,1,.558-2.022,4.5,4.5,0,0,1,1.011-1.569,4.009,4.009,0,0,1,1.569-.976,6.384,6.384,0,0,1,2.231-.383,6.487,6.487,0,0,1,2.441.418,3.8,3.8,0,0,1,1.6,1.221,5.964,5.964,0,0,1,.941,1.883,10.077,10.077,0,0,1,.349,2.475c0,.14.035.384.035.663h-2.894v-.627a7.613,7.613,0,0,0-.174-1.883,1.812,1.812,0,0,0-.244-.732,3.519,3.519,0,0,0-.453-.558,1.394,1.394,0,0,0-.663-.383,3.907,3.907,0,0,0-.941-.1,3,3,0,0,0-1.185.209,2.406,2.406,0,0,0-.8.593,2.964,2.964,0,0,0-.418.941,6.66,6.66,0,0,0-.209,1.15c0,.383-.035.837-.035,1.394v7.183c0,.488.035.906.069,1.29a4.463,4.463,0,0,0,.244,1.185,3.623,3.623,0,0,0,.453.976,2.546,2.546,0,0,0,3,.627,2.439,2.439,0,0,0,.7-.627,3.591,3.591,0,0,0,.418-.976,7.7,7.7,0,0,0,.209-1.185c.035-.349.035-.8.035-1.29v-.7h2.894v.7a12.9,12.9,0,0,1-.279,2.755,6.485,6.485,0,0,1-.906,2.057,3.556,3.556,0,0,1-1.639,1.394,6.274,6.274,0,0,1-2.546.453Zm30.579-.209V589.71h2.859v8.612l4.323-8.612h3.591l-4.323,7.88,5.021,12.2h-3.556l-3.591-9.31-1.465,2.859v6.451Zm12.553,0V589.71h7.882v2.162h-5.021v6.451h3.591v2.162h-3.591v7.183h5.021V609.8Z" transform="translate(-55 -589.497)" fill="#ef5d73"/>
        <rect id="Rectangle_1-2" data-name="Rectangle 1" width="12.901" height="6.977" rx="2" transform="translate(93.167 0.314)" fill="#ef5d73" stroke="#fff" stroke-miterlimit="10" stroke-width="1"/>
        <rect id="Rectangle_2" data-name="Rectangle 2" width="14.993" height="8.107" rx="2" transform="translate(92.122 4.986)" fill="#ef5d73" stroke="#fff" stroke-miterlimit="10" stroke-width="1"/>
        <rect id="Rectangle_3" data-name="Rectangle 3" width="18.48" height="9.983" rx="2" transform="translate(90.378 10.252)" fill="#ef5d73" stroke="#fff" stroke-miterlimit="10" stroke-width="1"/>
      </g>
    </g>
    <g id="Speed-icon" transform="translate(3.307 -43.787)">
      <path id="Path_1-2" data-name="Path 1" d="M214.194,202.69a1.609,1.609,0,0,0-2.275,0l-4.588,4.588a3.068,3.068,0,1,0,2.275,2.275l4.588-4.588A1.609,1.609,0,0,0,214.194,202.69Z" transform="translate(-189.492 -146.148)" fill="#e75a6f"/>
      <path id="Path_2" data-name="Path 2" d="M30.207,50.4A17.7,17.7,0,0,0,2.98,72.753a1.609,1.609,0,1,0,2.673-1.791,14.377,14.377,0,0,1-2.345-6.4H4.821a1.609,1.609,0,1,0,0-3.218H3.3A14.488,14.488,0,0,1,6.359,53.9L7.453,54.99a1.609,1.609,0,1,0,2.275-2.275l-1.1-1.1a14.419,14.419,0,0,1,7.522-3.1v1.519a1.609,1.609,0,1,0,3.218,0v-1.5a14.411,14.411,0,0,1,7.386,3.082l-1.1,1.1a1.609,1.609,0,0,0,2.276,2.275L29.026,53.9a14.486,14.486,0,0,1,3.056,7.449H30.564a1.609,1.609,0,0,0,0,3.218h1.513a14.374,14.374,0,0,1-2.345,6.4A1.609,1.609,0,1,0,32.4,72.754,17.731,17.731,0,0,0,30.207,50.4Z" transform="translate(0)" fill="#e75a6f"/>
      <path id="Path_3" data-name="Path 3" d="M143.9,420.217H129.4a1.609,1.609,0,1,0,0,3.218h14.5a1.609,1.609,0,1,0,0-3.218Z" transform="translate(-118.959 -349.081)" fill="#e75a6f"/>
    </g>
  </g>
</svg>
